<mxfile host="Electron" modified="2024-10-16T03:17:37.534Z" agent="Mozilla/5.0 (Windows NT 10.0; Win64; x64) AppleWebKit/537.36 (KHTML, like Gecko) draw.io/22.1.21 Chrome/120.0.6099.109 Electron/28.1.0 Safari/537.36" etag="KPl9BEz9RIvPWPQKMoIk" version="22.1.21" type="device">
  <diagram id="C5RBs43oDa-KdzZeNtuy" name="Page-1">
    <mxGraphModel dx="890" dy="494" grid="1" gridSize="10" guides="1" tooltips="1" connect="1" arrows="1" fold="1" page="1" pageScale="1" pageWidth="827" pageHeight="1169" math="0" shadow="0">
      <root>
        <mxCell id="WIyWlLk6GJQsqaUBKTNV-0" />
        <mxCell id="WIyWlLk6GJQsqaUBKTNV-1" parent="WIyWlLk6GJQsqaUBKTNV-0" />
        <mxCell id="Udp9XYzkEvqk1qjDelr3-5" value="BarangElektronik" style="swimlane;fontStyle=1;align=center;verticalAlign=top;childLayout=stackLayout;horizontal=1;startSize=26;horizontalStack=0;resizeParent=1;resizeParentMax=0;resizeLast=0;collapsible=1;marginBottom=0;whiteSpace=wrap;html=1;" parent="WIyWlLk6GJQsqaUBKTNV-1" vertex="1">
          <mxGeometry x="334" y="120" width="216" height="148" as="geometry" />
        </mxCell>
        <mxCell id="Udp9XYzkEvqk1qjDelr3-6" value="merk: String&amp;nbsp;&lt;br&gt;model: String&lt;br&gt;harga: double" style="text;strokeColor=none;fillColor=none;align=left;verticalAlign=top;spacingLeft=4;spacingRight=4;overflow=hidden;rotatable=0;points=[[0,0.5],[1,0.5]];portConstraint=eastwest;whiteSpace=wrap;html=1;" parent="Udp9XYzkEvqk1qjDelr3-5" vertex="1">
          <mxGeometry y="26" width="216" height="64" as="geometry" />
        </mxCell>
        <mxCell id="Udp9XYzkEvqk1qjDelr3-7" value="" style="line;strokeWidth=1;fillColor=none;align=left;verticalAlign=middle;spacingTop=-1;spacingLeft=3;spacingRight=3;rotatable=0;labelPosition=right;points=[];portConstraint=eastwest;strokeColor=inherit;" parent="Udp9XYzkEvqk1qjDelr3-5" vertex="1">
          <mxGeometry y="90" width="216" height="8" as="geometry" />
        </mxCell>
        <mxCell id="Udp9XYzkEvqk1qjDelr3-8" value="+ hidupkan()&lt;br&gt;+ matikan()" style="text;strokeColor=none;fillColor=none;align=left;verticalAlign=top;spacingLeft=4;spacingRight=4;overflow=hidden;rotatable=0;points=[[0,0.5],[1,0.5]];portConstraint=eastwest;whiteSpace=wrap;html=1;" parent="Udp9XYzkEvqk1qjDelr3-5" vertex="1">
          <mxGeometry y="98" width="216" height="50" as="geometry" />
        </mxCell>
        <mxCell id="EXRWKNnNurYDm6vM_YL8-1" style="edgeStyle=orthogonalEdgeStyle;rounded=0;orthogonalLoop=1;jettySize=auto;html=1;exitX=0.5;exitY=0;exitDx=0;exitDy=0;" parent="WIyWlLk6GJQsqaUBKTNV-1" source="Udp9XYzkEvqk1qjDelr3-10" edge="1">
          <mxGeometry relative="1" as="geometry">
            <mxPoint x="440" y="270" as="targetPoint" />
          </mxGeometry>
        </mxCell>
        <mxCell id="Udp9XYzkEvqk1qjDelr3-10" value="Televisi" style="swimlane;fontStyle=1;align=center;verticalAlign=top;childLayout=stackLayout;horizontal=1;startSize=26;horizontalStack=0;resizeParent=1;resizeParentMax=0;resizeLast=0;collapsible=1;marginBottom=0;whiteSpace=wrap;html=1;" parent="WIyWlLk6GJQsqaUBKTNV-1" vertex="1">
          <mxGeometry x="220" y="400" width="216" height="170" as="geometry" />
        </mxCell>
        <mxCell id="Udp9XYzkEvqk1qjDelr3-11" value="ukuranLayar: int&lt;br&gt;resolusi: String" style="text;strokeColor=none;fillColor=none;align=left;verticalAlign=top;spacingLeft=4;spacingRight=4;overflow=hidden;rotatable=0;points=[[0,0.5],[1,0.5]];portConstraint=eastwest;whiteSpace=wrap;html=1;" parent="Udp9XYzkEvqk1qjDelr3-10" vertex="1">
          <mxGeometry y="26" width="216" height="64" as="geometry" />
        </mxCell>
        <mxCell id="Udp9XYzkEvqk1qjDelr3-12" value="" style="line;strokeWidth=1;fillColor=none;align=left;verticalAlign=middle;spacingTop=-1;spacingLeft=3;spacingRight=3;rotatable=0;labelPosition=right;points=[];portConstraint=eastwest;strokeColor=inherit;" parent="Udp9XYzkEvqk1qjDelr3-10" vertex="1">
          <mxGeometry y="90" width="216" height="8" as="geometry" />
        </mxCell>
        <mxCell id="Udp9XYzkEvqk1qjDelr3-13" value="+ ubahChannel(): void&amp;nbsp;&lt;br&gt;+ tingkatkanVolume(): void&amp;nbsp;&lt;br&gt;+ matikanSuara(): void&amp;nbsp;&amp;nbsp;" style="text;strokeColor=none;fillColor=none;align=left;verticalAlign=top;spacingLeft=4;spacingRight=4;overflow=hidden;rotatable=0;points=[[0,0.5],[1,0.5]];portConstraint=eastwest;whiteSpace=wrap;html=1;" parent="Udp9XYzkEvqk1qjDelr3-10" vertex="1">
          <mxGeometry y="98" width="216" height="72" as="geometry" />
        </mxCell>
        <mxCell id="EXRWKNnNurYDm6vM_YL8-4" style="edgeStyle=orthogonalEdgeStyle;rounded=0;orthogonalLoop=1;jettySize=auto;html=1;exitX=0.5;exitY=0;exitDx=0;exitDy=0;" parent="WIyWlLk6GJQsqaUBKTNV-1" source="Udp9XYzkEvqk1qjDelr3-14" edge="1">
          <mxGeometry relative="1" as="geometry">
            <mxPoint x="450" y="270" as="targetPoint" />
          </mxGeometry>
        </mxCell>
        <mxCell id="Udp9XYzkEvqk1qjDelr3-14" value="Kulkas" style="swimlane;fontStyle=1;align=center;verticalAlign=top;childLayout=stackLayout;horizontal=1;startSize=26;horizontalStack=0;resizeParent=1;resizeParentMax=0;resizeLast=0;collapsible=1;marginBottom=0;whiteSpace=wrap;html=1;" parent="WIyWlLk6GJQsqaUBKTNV-1" vertex="1">
          <mxGeometry x="480" y="400" width="216" height="180" as="geometry" />
        </mxCell>
        <mxCell id="Udp9XYzkEvqk1qjDelr3-15" value="kapasitas: double&lt;br&gt;suhuMinimal: double&lt;br&gt;suhuMaksimal: double&lt;br&gt;modeHematEnergi: boolean" style="text;strokeColor=none;fillColor=none;align=left;verticalAlign=top;spacingLeft=4;spacingRight=4;overflow=hidden;rotatable=0;points=[[0,0.5],[1,0.5]];portConstraint=eastwest;whiteSpace=wrap;html=1;" parent="Udp9XYzkEvqk1qjDelr3-14" vertex="1">
          <mxGeometry y="26" width="216" height="74" as="geometry" />
        </mxCell>
        <mxCell id="Udp9XYzkEvqk1qjDelr3-16" value="" style="line;strokeWidth=1;fillColor=none;align=left;verticalAlign=middle;spacingTop=-1;spacingLeft=3;spacingRight=3;rotatable=0;labelPosition=right;points=[];portConstraint=eastwest;strokeColor=inherit;" parent="Udp9XYzkEvqk1qjDelr3-14" vertex="1">
          <mxGeometry y="100" width="216" height="8" as="geometry" />
        </mxCell>
        <mxCell id="Udp9XYzkEvqk1qjDelr3-17" value="+ aturSuhu(): void&lt;br&gt;+ bukaPintu(): void&lt;br&gt;+ aktifkanModeHematEnergi(): void&lt;br&gt;+ matikanModeHematEnergi(): void" style="text;strokeColor=none;fillColor=none;align=left;verticalAlign=top;spacingLeft=4;spacingRight=4;overflow=hidden;rotatable=0;points=[[0,0.5],[1,0.5]];portConstraint=eastwest;whiteSpace=wrap;html=1;" parent="Udp9XYzkEvqk1qjDelr3-14" vertex="1">
          <mxGeometry y="108" width="216" height="72" as="geometry" />
        </mxCell>
      </root>
    </mxGraphModel>
  </diagram>
</mxfile>
